<svg xmlns="http://www.w3.org/2000/svg" data-name="Layer 1" width="27" height="26"><path d="M26.992 13.12c0-1.952.007-3.904-.005-5.856a7.491 7.491 0 0 0-.12-1.334 6.976 6.976 0 0 0-2.5-4.19A7.315 7.315 0 0 0 19.638.01c-4.03-.02-8.061-.006-12.093-.007A7.347 7.347 0 0 0 3.88.911 6.937 6.937 0 0 0 .03 7.138c-.054 3.895-.017 7.792-.012 11.69a6.507 6.507 0 0 0 .89 3.347A7.279 7.279 0 0 0 7.42 25.97c4.056.056 8.114.015 12.172.013a7.638 7.638 0 0 0 4.901-1.84 6.922 6.922 0 0 0 2.493-5.277c.03-1.915.006-3.832.007-5.747Zm-13.575 7.09a7.362 7.362 0 0 1-7.406-7.218 7.35 7.35 0 0 1 7.5-7.212 7.352 7.352 0 0 1 7.485 7.215 7.37 7.37 0 0 1-7.579 7.215Zm9.08-14.43a1.48 1.48 0 0 1-1.501-1.449 1.501 1.501 0 0 1 3 0 1.481 1.481 0 0 1-1.5 1.448Z" style="fill-rule:evenodd"/><path d="M13.497 8.357a4.733 4.733 0 0 0-4.818 4.645 4.74 4.74 0 0 0 4.824 4.64 4.74 4.74 0 0 0 4.818-4.646 4.734 4.734 0 0 0-4.824-4.639Z" style="fill-rule:evenodd"/></svg>